<mxfile host="app.diagrams.net" modified="2020-10-09T17:39:08.329Z" agent="5.0 (Macintosh; Intel Mac OS X 10_15_7) AppleWebKit/537.36 (KHTML, like Gecko) Chrome/85.0.4183.121 Safari/537.36" etag="KJh26_EUCrlqlVZgLaQ3" version="13.7.9" type="github">
  <diagram id="t-MsGUUJoPLz4F5lF9-H" name="Page-1">
    <mxGraphModel dx="4564" dy="4272" grid="1" gridSize="10" guides="1" tooltips="1" connect="1" arrows="1" fold="1" page="1" pageScale="1" pageWidth="827" pageHeight="1169" math="0" shadow="0">
      <root>
        <mxCell id="0" />
        <mxCell id="1" parent="0" />
        <mxCell id="4jG-6nnVgu0Ws9EfD6lV-4" style="edgeStyle=orthogonalEdgeStyle;rounded=0;orthogonalLoop=1;jettySize=auto;html=1;entryX=0.5;entryY=0;entryDx=0;entryDy=0;" parent="1" source="4jG-6nnVgu0Ws9EfD6lV-2" target="4jG-6nnVgu0Ws9EfD6lV-3" edge="1">
          <mxGeometry relative="1" as="geometry">
            <Array as="points">
              <mxPoint x="400" y="420" />
              <mxPoint x="290" y="420" />
            </Array>
          </mxGeometry>
        </mxCell>
        <mxCell id="46lSR11_LrYwZzZyB0Aa-86" style="edgeStyle=orthogonalEdgeStyle;rounded=0;orthogonalLoop=1;jettySize=auto;html=1;exitX=0.5;exitY=1;exitDx=0;exitDy=0;entryX=0.5;entryY=0;entryDx=0;entryDy=0;" edge="1" parent="1" source="4jG-6nnVgu0Ws9EfD6lV-2" target="4jG-6nnVgu0Ws9EfD6lV-76">
          <mxGeometry relative="1" as="geometry" />
        </mxCell>
        <mxCell id="46lSR11_LrYwZzZyB0Aa-87" style="edgeStyle=orthogonalEdgeStyle;rounded=0;orthogonalLoop=1;jettySize=auto;html=1;exitX=0.5;exitY=1;exitDx=0;exitDy=0;entryX=0.5;entryY=0;entryDx=0;entryDy=0;" edge="1" parent="1" source="4jG-6nnVgu0Ws9EfD6lV-2" target="46lSR11_LrYwZzZyB0Aa-3">
          <mxGeometry relative="1" as="geometry" />
        </mxCell>
        <mxCell id="46lSR11_LrYwZzZyB0Aa-88" style="edgeStyle=orthogonalEdgeStyle;rounded=0;orthogonalLoop=1;jettySize=auto;html=1;exitX=0.5;exitY=1;exitDx=0;exitDy=0;entryX=0.5;entryY=0;entryDx=0;entryDy=0;" edge="1" parent="1" source="4jG-6nnVgu0Ws9EfD6lV-2" target="4jG-6nnVgu0Ws9EfD6lV-78">
          <mxGeometry relative="1" as="geometry" />
        </mxCell>
        <mxCell id="4jG-6nnVgu0Ws9EfD6lV-2" value="DIN SIDE" style="rounded=1;whiteSpace=wrap;html=1;fillColor=#000000;fontColor=#FFFFFF;" parent="1" vertex="1">
          <mxGeometry x="340" y="330" width="120" height="60" as="geometry" />
        </mxCell>
        <mxCell id="46lSR11_LrYwZzZyB0Aa-83" style="edgeStyle=orthogonalEdgeStyle;rounded=0;orthogonalLoop=1;jettySize=auto;html=1;entryX=0.5;entryY=0;entryDx=0;entryDy=0;" edge="1" parent="1" source="4jG-6nnVgu0Ws9EfD6lV-3" target="4jG-6nnVgu0Ws9EfD6lV-9">
          <mxGeometry relative="1" as="geometry" />
        </mxCell>
        <mxCell id="4jG-6nnVgu0Ws9EfD6lV-3" value="START PÅMELDING" style="shape=hexagon;perimeter=hexagonPerimeter2;whiteSpace=wrap;html=1;fixedSize=1;fillColor=#f5f5f5;strokeColor=#666666;fontColor=#333333;" parent="1" vertex="1">
          <mxGeometry x="220" y="450" width="140" height="40" as="geometry" />
        </mxCell>
        <mxCell id="4jG-6nnVgu0Ws9EfD6lV-9" value="VELG HVOR DU SKAL DELTA" style="rounded=1;whiteSpace=wrap;html=1;fillColor=#000000;fontColor=#FFFFFF;" parent="1" vertex="1">
          <mxGeometry x="230" y="530" width="120" height="60" as="geometry" />
        </mxCell>
        <mxCell id="4jG-6nnVgu0Ws9EfD6lV-34" style="edgeStyle=orthogonalEdgeStyle;rounded=0;orthogonalLoop=1;jettySize=auto;html=1;fontSize=10;" parent="1" source="4jG-6nnVgu0Ws9EfD6lV-28" edge="1">
          <mxGeometry relative="1" as="geometry">
            <mxPoint x="290" y="660" as="targetPoint" />
          </mxGeometry>
        </mxCell>
        <mxCell id="4jG-6nnVgu0Ws9EfD6lV-28" value="Foreslå sted&amp;nbsp;" style="rounded=1;whiteSpace=wrap;html=1;strokeWidth=3;fontSize=10;align=center;fillColor=#999999;" parent="1" vertex="1">
          <mxGeometry x="230" y="581" width="120" height="39" as="geometry" />
        </mxCell>
        <mxCell id="4jG-6nnVgu0Ws9EfD6lV-30" style="edgeStyle=orthogonalEdgeStyle;rounded=0;orthogonalLoop=1;jettySize=auto;html=1;entryX=1;entryY=0.5;entryDx=0;entryDy=0;fontSize=10;" parent="1" source="4jG-6nnVgu0Ws9EfD6lV-29" target="4jG-6nnVgu0Ws9EfD6lV-28" edge="1">
          <mxGeometry relative="1" as="geometry" />
        </mxCell>
        <mxCell id="4jG-6nnVgu0Ws9EfD6lV-29" value="Hvis kontaktpersonen har benyttet seg av geolokalisering, foreslår vi at det er her hen vil melde seg på." style="text;html=1;strokeColor=none;fillColor=none;align=left;verticalAlign=middle;whiteSpace=wrap;rounded=0;fontSize=10;" parent="1" vertex="1">
          <mxGeometry x="380" y="585" width="150" height="31" as="geometry" />
        </mxCell>
        <mxCell id="4jG-6nnVgu0Ws9EfD6lV-41" style="edgeStyle=orthogonalEdgeStyle;rounded=0;orthogonalLoop=1;jettySize=auto;html=1;entryX=1;entryY=0.75;entryDx=0;entryDy=0;fontSize=10;fontColor=#F26D15;" parent="1" source="4jG-6nnVgu0Ws9EfD6lV-38" target="4jG-6nnVgu0Ws9EfD6lV-36" edge="1">
          <mxGeometry relative="1" as="geometry" />
        </mxCell>
        <mxCell id="4jG-6nnVgu0Ws9EfD6lV-42" value="&lt;font color=&quot;#000000&quot;&gt;NEI&lt;/font&gt;" style="edgeLabel;html=1;align=center;verticalAlign=middle;resizable=0;points=[];fontSize=10;fontColor=#F26D15;" parent="4jG-6nnVgu0Ws9EfD6lV-41" vertex="1" connectable="0">
          <mxGeometry x="-0.02" relative="1" as="geometry">
            <mxPoint as="offset" />
          </mxGeometry>
        </mxCell>
        <mxCell id="4jG-6nnVgu0Ws9EfD6lV-44" style="edgeStyle=orthogonalEdgeStyle;rounded=0;orthogonalLoop=1;jettySize=auto;html=1;fontSize=10;fontColor=#F26D15;" parent="1" source="4jG-6nnVgu0Ws9EfD6lV-38" target="4jG-6nnVgu0Ws9EfD6lV-43" edge="1">
          <mxGeometry relative="1" as="geometry" />
        </mxCell>
        <mxCell id="4jG-6nnVgu0Ws9EfD6lV-38" value="HAR KOMMUNEN ARRANGEMENT?" style="rhombus;whiteSpace=wrap;html=1;fillColor=#F26D15;fontSize=10;spacing=4;" parent="1" vertex="1">
          <mxGeometry x="220" y="660" width="140" height="80" as="geometry" />
        </mxCell>
        <mxCell id="4jG-6nnVgu0Ws9EfD6lV-40" value="" style="group" parent="1" vertex="1" connectable="0">
          <mxGeometry y="655" width="120" height="89" as="geometry" />
        </mxCell>
        <mxCell id="4jG-6nnVgu0Ws9EfD6lV-36" value="VELG HVOR DU SKAL DELTA" style="rounded=1;whiteSpace=wrap;html=1;fillColor=#000000;fontColor=#FFFFFF;" parent="4jG-6nnVgu0Ws9EfD6lV-40" vertex="1">
          <mxGeometry width="120" height="60" as="geometry" />
        </mxCell>
        <mxCell id="4jG-6nnVgu0Ws9EfD6lV-37" value="BEKLAGER" style="rounded=1;whiteSpace=wrap;html=1;strokeWidth=3;fontSize=10;align=center;fillColor=#F21D16;" parent="4jG-6nnVgu0Ws9EfD6lV-40" vertex="1">
          <mxGeometry y="50" width="120" height="39" as="geometry" />
        </mxCell>
        <mxCell id="4jG-6nnVgu0Ws9EfD6lV-51" style="edgeStyle=orthogonalEdgeStyle;rounded=0;orthogonalLoop=1;jettySize=auto;html=1;entryX=1;entryY=0.75;entryDx=0;entryDy=0;fontSize=10;fontColor=#F26D15;" parent="1" source="4jG-6nnVgu0Ws9EfD6lV-43" target="4jG-6nnVgu0Ws9EfD6lV-47" edge="1">
          <mxGeometry relative="1" as="geometry" />
        </mxCell>
        <mxCell id="4jG-6nnVgu0Ws9EfD6lV-52" value="&lt;font color=&quot;#000000&quot;&gt;NEI&lt;/font&gt;" style="edgeLabel;html=1;align=center;verticalAlign=middle;resizable=0;points=[];fontSize=10;fontColor=#F26D15;" parent="4jG-6nnVgu0Ws9EfD6lV-51" vertex="1" connectable="0">
          <mxGeometry x="0.04" y="1" relative="1" as="geometry">
            <mxPoint as="offset" />
          </mxGeometry>
        </mxCell>
        <mxCell id="4jG-6nnVgu0Ws9EfD6lV-55" style="edgeStyle=orthogonalEdgeStyle;rounded=0;orthogonalLoop=1;jettySize=auto;html=1;entryX=1;entryY=0;entryDx=0;entryDy=0;fontSize=10;fontColor=#F26D15;" parent="1" source="4jG-6nnVgu0Ws9EfD6lV-43" target="4jG-6nnVgu0Ws9EfD6lV-53" edge="1">
          <mxGeometry relative="1" as="geometry" />
        </mxCell>
        <mxCell id="4jG-6nnVgu0Ws9EfD6lV-62" value="&lt;font color=&quot;#000000&quot;&gt;JA&lt;/font&gt;" style="edgeLabel;html=1;align=center;verticalAlign=middle;resizable=0;points=[];fontSize=10;fontColor=#F26D15;" parent="4jG-6nnVgu0Ws9EfD6lV-55" vertex="1" connectable="0">
          <mxGeometry x="-0.2296" relative="1" as="geometry">
            <mxPoint as="offset" />
          </mxGeometry>
        </mxCell>
        <mxCell id="4jG-6nnVgu0Ws9EfD6lV-43" value="HAR KOMMUNEN &lt;br&gt;&lt;b&gt;ETT&lt;/b&gt;&lt;br&gt;ARRANGEMENT?" style="rhombus;whiteSpace=wrap;html=1;fillColor=#F26D15;fontSize=10;spacing=4;" parent="1" vertex="1">
          <mxGeometry x="220" y="790" width="140" height="80" as="geometry" />
        </mxCell>
        <mxCell id="4jG-6nnVgu0Ws9EfD6lV-46" value="" style="group" parent="1" vertex="1" connectable="0">
          <mxGeometry y="785" width="120" height="89" as="geometry" />
        </mxCell>
        <mxCell id="4jG-6nnVgu0Ws9EfD6lV-47" value="VELG HVOR DU SKAL DELTA" style="rounded=1;whiteSpace=wrap;html=1;fillColor=#000000;fontColor=#FFFFFF;" parent="4jG-6nnVgu0Ws9EfD6lV-46" vertex="1">
          <mxGeometry width="120" height="60" as="geometry" />
        </mxCell>
        <mxCell id="4jG-6nnVgu0Ws9EfD6lV-48" value="VELG ARRANGEMENT" style="rounded=1;whiteSpace=wrap;html=1;strokeWidth=3;fontSize=10;align=center;fillColor=#999999;" parent="4jG-6nnVgu0Ws9EfD6lV-46" vertex="1">
          <mxGeometry y="50" width="120" height="39" as="geometry" />
        </mxCell>
        <mxCell id="4jG-6nnVgu0Ws9EfD6lV-59" style="edgeStyle=orthogonalEdgeStyle;rounded=0;orthogonalLoop=1;jettySize=auto;html=1;entryX=1;entryY=0.75;entryDx=0;entryDy=0;fontSize=10;fontColor=#F26D15;" parent="1" source="4jG-6nnVgu0Ws9EfD6lV-53" target="4jG-6nnVgu0Ws9EfD6lV-57" edge="1">
          <mxGeometry relative="1" as="geometry" />
        </mxCell>
        <mxCell id="4jG-6nnVgu0Ws9EfD6lV-61" value="&lt;font color=&quot;#000000&quot;&gt;JA&lt;/font&gt;" style="edgeLabel;html=1;align=center;verticalAlign=middle;resizable=0;points=[];fontSize=10;fontColor=#F26D15;" parent="4jG-6nnVgu0Ws9EfD6lV-59" vertex="1" connectable="0">
          <mxGeometry x="-0.05" y="2" relative="1" as="geometry">
            <mxPoint as="offset" />
          </mxGeometry>
        </mxCell>
        <mxCell id="46lSR11_LrYwZzZyB0Aa-56" value="NEI" style="edgeStyle=orthogonalEdgeStyle;rounded=0;orthogonalLoop=1;jettySize=auto;html=1;entryX=0.5;entryY=0;entryDx=0;entryDy=0;" edge="1" parent="1" source="4jG-6nnVgu0Ws9EfD6lV-53" target="46lSR11_LrYwZzZyB0Aa-52">
          <mxGeometry relative="1" as="geometry">
            <Array as="points">
              <mxPoint x="190" y="1090" />
              <mxPoint x="111" y="1090" />
            </Array>
          </mxGeometry>
        </mxCell>
        <mxCell id="4jG-6nnVgu0Ws9EfD6lV-53" value="ER ARRANGEMENTET&lt;br&gt;FELLESMØNSTRING?" style="rhombus;whiteSpace=wrap;html=1;fillColor=#F26D15;fontSize=10;spacing=4;" parent="1" vertex="1">
          <mxGeometry x="100" y="930" width="180" height="80" as="geometry" />
        </mxCell>
        <mxCell id="4jG-6nnVgu0Ws9EfD6lV-54" style="edgeStyle=orthogonalEdgeStyle;rounded=0;orthogonalLoop=1;jettySize=auto;html=1;entryX=0;entryY=0;entryDx=0;entryDy=0;fontSize=10;fontColor=#F26D15;" parent="1" source="4jG-6nnVgu0Ws9EfD6lV-48" target="4jG-6nnVgu0Ws9EfD6lV-53" edge="1">
          <mxGeometry relative="1" as="geometry" />
        </mxCell>
        <mxCell id="4jG-6nnVgu0Ws9EfD6lV-56" value="" style="group" parent="1" vertex="1" connectable="0">
          <mxGeometry x="-100" y="925" width="120" height="89" as="geometry" />
        </mxCell>
        <mxCell id="4jG-6nnVgu0Ws9EfD6lV-57" value="VELG HVOR DU SKAL DELTA" style="rounded=1;whiteSpace=wrap;html=1;fillColor=#000000;fontColor=#FFFFFF;" parent="4jG-6nnVgu0Ws9EfD6lV-56" vertex="1">
          <mxGeometry width="120" height="60" as="geometry" />
        </mxCell>
        <mxCell id="4jG-6nnVgu0Ws9EfD6lV-58" value="VELG ARRANGEMENT" style="rounded=1;whiteSpace=wrap;html=1;strokeWidth=3;fontSize=10;align=center;fillColor=#999999;" parent="4jG-6nnVgu0Ws9EfD6lV-56" vertex="1">
          <mxGeometry y="50" width="120" height="39" as="geometry" />
        </mxCell>
        <mxCell id="4jG-6nnVgu0Ws9EfD6lV-60" value="VELG KOMMUNE" style="rounded=1;whiteSpace=wrap;html=1;strokeWidth=3;fontSize=10;align=center;fillColor=#999999;" parent="1" vertex="1">
          <mxGeometry x="-100" y="1014" width="120" height="39" as="geometry" />
        </mxCell>
        <mxCell id="46lSR11_LrYwZzZyB0Aa-8" style="edgeStyle=orthogonalEdgeStyle;rounded=0;orthogonalLoop=1;jettySize=auto;html=1;" edge="1" parent="1" source="4jG-6nnVgu0Ws9EfD6lV-63" target="46lSR11_LrYwZzZyB0Aa-1">
          <mxGeometry relative="1" as="geometry" />
        </mxCell>
        <mxCell id="46lSR11_LrYwZzZyB0Aa-9" style="edgeStyle=orthogonalEdgeStyle;rounded=0;orthogonalLoop=1;jettySize=auto;html=1;entryX=0.5;entryY=0;entryDx=0;entryDy=0;" edge="1" parent="1" source="4jG-6nnVgu0Ws9EfD6lV-63" target="46lSR11_LrYwZzZyB0Aa-2">
          <mxGeometry relative="1" as="geometry" />
        </mxCell>
        <mxCell id="4jG-6nnVgu0Ws9EfD6lV-63" value="HVA VIL DU DELTA MED?" style="rounded=1;whiteSpace=wrap;html=1;fillColor=#000000;fontColor=#FFFFFF;" parent="1" vertex="1">
          <mxGeometry x="18" y="1362.33" width="185" height="60" as="geometry" />
        </mxCell>
        <mxCell id="4jG-6nnVgu0Ws9EfD6lV-74" value="" style="group" parent="1" vertex="1" connectable="0">
          <mxGeometry x="-270" y="520" width="160" height="550" as="geometry" />
        </mxCell>
        <mxCell id="4jG-6nnVgu0Ws9EfD6lV-72" value="" style="shape=curlyBracket;whiteSpace=wrap;html=1;rounded=1;fontSize=10;strokeWidth=3;" parent="4jG-6nnVgu0Ws9EfD6lV-74" vertex="1">
          <mxGeometry x="140" width="20" height="550" as="geometry" />
        </mxCell>
        <mxCell id="4jG-6nnVgu0Ws9EfD6lV-73" value="&lt;b&gt;ETT OG SAMME STEG&lt;/b&gt;&lt;br&gt;Bare ulike varianter av view basert på tilgjengelige alternativer" style="text;html=1;strokeColor=none;fillColor=none;align=left;verticalAlign=middle;whiteSpace=wrap;rounded=0;fontSize=10;" parent="4jG-6nnVgu0Ws9EfD6lV-74" vertex="1">
          <mxGeometry x="10" y="235" width="130" height="80" as="geometry" />
        </mxCell>
        <mxCell id="46lSR11_LrYwZzZyB0Aa-122" style="edgeStyle=orthogonalEdgeStyle;rounded=0;orthogonalLoop=1;jettySize=auto;html=1;entryX=0.31;entryY=0.8;entryDx=0;entryDy=0;entryPerimeter=0;fontColor=#000000;" edge="1" parent="1" source="4jG-6nnVgu0Ws9EfD6lV-78" target="4jG-6nnVgu0Ws9EfD6lV-90">
          <mxGeometry relative="1" as="geometry">
            <Array as="points">
              <mxPoint x="50" y="510" />
              <mxPoint x="-65" y="510" />
            </Array>
          </mxGeometry>
        </mxCell>
        <mxCell id="4jG-6nnVgu0Ws9EfD6lV-78" value="REDIGER &lt;br&gt;BRUKER-INFO" style="shape=hexagon;perimeter=hexagonPerimeter2;whiteSpace=wrap;html=1;fixedSize=1;fillColor=#f5f5f5;strokeColor=#666666;fontColor=#333333;" parent="1" vertex="1">
          <mxGeometry x="-20" y="450" width="140" height="40" as="geometry" />
        </mxCell>
        <mxCell id="4jG-6nnVgu0Ws9EfD6lV-84" value="" style="group" parent="1" vertex="1" connectable="0">
          <mxGeometry x="540" y="450" width="140" height="112" as="geometry" />
        </mxCell>
        <mxCell id="4jG-6nnVgu0Ws9EfD6lV-76" value="MELD AV INNSLAG" style="shape=hexagon;perimeter=hexagonPerimeter2;whiteSpace=wrap;html=1;fixedSize=1;fillColor=#f5f5f5;strokeColor=#666666;fontColor=#333333;" parent="4jG-6nnVgu0Ws9EfD6lV-84" vertex="1">
          <mxGeometry width="140" height="40" as="geometry" />
        </mxCell>
        <mxCell id="4jG-6nnVgu0Ws9EfD6lV-83" value="&lt;b&gt;LØSES UTEN REDIRECT&lt;br&gt;&lt;/b&gt;Javascript-avmelding. Dobbeltsjekk, og skjul innslaget hvis brukeren er sikker. Evt confirm, og refresh siden" style="text;html=1;strokeColor=none;fillColor=none;align=left;verticalAlign=middle;whiteSpace=wrap;rounded=0;fontSize=10;" parent="4jG-6nnVgu0Ws9EfD6lV-84" vertex="1">
          <mxGeometry x="10" y="43" width="130" height="80" as="geometry" />
        </mxCell>
        <mxCell id="46lSR11_LrYwZzZyB0Aa-118" style="edgeStyle=orthogonalEdgeStyle;rounded=0;orthogonalLoop=1;jettySize=auto;html=1;fontColor=#000000;" edge="1" parent="1" source="4jG-6nnVgu0Ws9EfD6lV-85" target="4jG-6nnVgu0Ws9EfD6lV-86">
          <mxGeometry relative="1" as="geometry" />
        </mxCell>
        <mxCell id="4jG-6nnVgu0Ws9EfD6lV-85" value="UKM.NO&lt;br&gt;ARRANGEMENTSSIDE" style="rounded=1;whiteSpace=wrap;html=1;fillColor=#d5e8d4;strokeColor=#82b366;" parent="1" vertex="1">
          <mxGeometry x="220" y="-260" width="160" height="60" as="geometry" />
        </mxCell>
        <mxCell id="4jG-6nnVgu0Ws9EfD6lV-93" value="&lt;font color=&quot;#000000&quot;&gt;NEI&lt;/font&gt;" style="edgeStyle=orthogonalEdgeStyle;rounded=0;orthogonalLoop=1;jettySize=auto;html=1;entryX=0.875;entryY=0.5;entryDx=0;entryDy=0;entryPerimeter=0;fontSize=10;fontColor=#F21D16;" parent="1" source="4jG-6nnVgu0Ws9EfD6lV-86" target="4jG-6nnVgu0Ws9EfD6lV-90" edge="1">
          <mxGeometry relative="1" as="geometry" />
        </mxCell>
        <mxCell id="46lSR11_LrYwZzZyB0Aa-111" style="edgeStyle=orthogonalEdgeStyle;rounded=0;orthogonalLoop=1;jettySize=auto;html=1;exitX=0.5;exitY=1;exitDx=0;exitDy=0;entryX=0.5;entryY=0;entryDx=0;entryDy=0;" edge="1" parent="1" source="4jG-6nnVgu0Ws9EfD6lV-86" target="46lSR11_LrYwZzZyB0Aa-76">
          <mxGeometry relative="1" as="geometry" />
        </mxCell>
        <mxCell id="46lSR11_LrYwZzZyB0Aa-117" value="JA" style="edgeLabel;html=1;align=center;verticalAlign=middle;resizable=0;points=[];" vertex="1" connectable="0" parent="46lSR11_LrYwZzZyB0Aa-111">
          <mxGeometry x="-0.4957" relative="1" as="geometry">
            <mxPoint y="-9.67" as="offset" />
          </mxGeometry>
        </mxCell>
        <mxCell id="4jG-6nnVgu0Ws9EfD6lV-86" value="BRUKER LOGGET&lt;br&gt;INN?" style="rhombus;whiteSpace=wrap;html=1;fillColor=#F26D15;fontSize=10;spacing=4;" parent="1" vertex="1">
          <mxGeometry x="360.5" y="-70" width="80" height="80" as="geometry" />
        </mxCell>
        <mxCell id="46lSR11_LrYwZzZyB0Aa-123" style="edgeStyle=orthogonalEdgeStyle;rounded=0;orthogonalLoop=1;jettySize=auto;html=1;entryX=0;entryY=0;entryDx=0;entryDy=0;fontColor=#000000;exitX=0.625;exitY=0.2;exitDx=0;exitDy=0;exitPerimeter=0;" edge="1" parent="1" source="4jG-6nnVgu0Ws9EfD6lV-90" target="4jG-6nnVgu0Ws9EfD6lV-86">
          <mxGeometry relative="1" as="geometry">
            <Array as="points">
              <mxPoint x="-23" y="-70" />
              <mxPoint x="381" y="-70" />
            </Array>
          </mxGeometry>
        </mxCell>
        <mxCell id="46lSR11_LrYwZzZyB0Aa-124" value="BRUKER HAR LOGGET INN / REDIGERT BRUKERPROFIL" style="edgeLabel;html=1;align=center;verticalAlign=middle;resizable=0;points=[];fontColor=#000000;" vertex="1" connectable="0" parent="46lSR11_LrYwZzZyB0Aa-123">
          <mxGeometry x="-0.0389" y="1" relative="1" as="geometry">
            <mxPoint as="offset" />
          </mxGeometry>
        </mxCell>
        <mxCell id="4jG-6nnVgu0Ws9EfD6lV-90" value="&lt;font color=&quot;#000000&quot;&gt;BRUKER SENDES TIL ID.UKM.NO&lt;/font&gt;" style="ellipse;shape=cloud;whiteSpace=wrap;html=1;strokeWidth=3;fontSize=10;fontColor=#F26D15;align=center;spacing=13;spacingLeft=5;spacingRight=5;fillColor=#F21D16;" parent="1" vertex="1">
          <mxGeometry x="-106.5" y="-70" width="133" height="80" as="geometry" />
        </mxCell>
        <mxCell id="46lSR11_LrYwZzZyB0Aa-11" style="edgeStyle=orthogonalEdgeStyle;rounded=0;orthogonalLoop=1;jettySize=auto;html=1;exitX=0.5;exitY=1;exitDx=0;exitDy=0;entryX=0.5;entryY=0;entryDx=0;entryDy=0;" edge="1" parent="1" source="46lSR11_LrYwZzZyB0Aa-1" target="46lSR11_LrYwZzZyB0Aa-6">
          <mxGeometry relative="1" as="geometry" />
        </mxCell>
        <mxCell id="46lSR11_LrYwZzZyB0Aa-1" value="VELG &quot;VISE FREM&quot;-TYPE" style="shape=hexagon;perimeter=hexagonPerimeter2;whiteSpace=wrap;html=1;fixedSize=1;fillColor=#f5f5f5;strokeColor=#666666;fontColor=#333333;" vertex="1" parent="1">
          <mxGeometry x="-60" y="1463.33" width="140" height="40" as="geometry" />
        </mxCell>
        <mxCell id="46lSR11_LrYwZzZyB0Aa-10" style="edgeStyle=orthogonalEdgeStyle;rounded=0;orthogonalLoop=1;jettySize=auto;html=1;entryX=0.5;entryY=0;entryDx=0;entryDy=0;" edge="1" parent="1" source="46lSR11_LrYwZzZyB0Aa-2" target="46lSR11_LrYwZzZyB0Aa-7">
          <mxGeometry relative="1" as="geometry">
            <Array as="points">
              <mxPoint x="200" y="1513.33" />
              <mxPoint x="869" y="1513.33" />
            </Array>
          </mxGeometry>
        </mxCell>
        <mxCell id="46lSR11_LrYwZzZyB0Aa-2" value="VELG &quot;JOBBE MED&quot;-TYPE" style="shape=hexagon;perimeter=hexagonPerimeter2;whiteSpace=wrap;html=1;fixedSize=1;fillColor=#f5f5f5;strokeColor=#666666;fontColor=#333333;" vertex="1" parent="1">
          <mxGeometry x="130" y="1463.33" width="140" height="40" as="geometry" />
        </mxCell>
        <mxCell id="46lSR11_LrYwZzZyB0Aa-14" style="edgeStyle=orthogonalEdgeStyle;rounded=0;orthogonalLoop=1;jettySize=auto;html=1;entryX=0.5;entryY=0;entryDx=0;entryDy=0;" edge="1" parent="1" source="46lSR11_LrYwZzZyB0Aa-3" target="46lSR11_LrYwZzZyB0Aa-5">
          <mxGeometry relative="1" as="geometry" />
        </mxCell>
        <mxCell id="46lSR11_LrYwZzZyB0Aa-3" value="REDIGER PÅMELDING" style="shape=hexagon;perimeter=hexagonPerimeter2;whiteSpace=wrap;html=1;fixedSize=1;fillColor=#f5f5f5;strokeColor=#666666;fontColor=#333333;" vertex="1" parent="1">
          <mxGeometry x="720" y="450" width="160" height="40" as="geometry" />
        </mxCell>
        <mxCell id="46lSR11_LrYwZzZyB0Aa-20" value="JOBBE MED" style="edgeStyle=orthogonalEdgeStyle;rounded=0;orthogonalLoop=1;jettySize=auto;html=1;entryX=0.75;entryY=0;entryDx=0;entryDy=0;" edge="1" parent="1" source="46lSR11_LrYwZzZyB0Aa-5" target="46lSR11_LrYwZzZyB0Aa-7">
          <mxGeometry relative="1" as="geometry">
            <Array as="points">
              <mxPoint x="910" y="1473.33" />
            </Array>
          </mxGeometry>
        </mxCell>
        <mxCell id="46lSR11_LrYwZzZyB0Aa-21" value="VISE FREM" style="edgeStyle=orthogonalEdgeStyle;rounded=0;orthogonalLoop=1;jettySize=auto;html=1;entryX=0.75;entryY=0;entryDx=0;entryDy=0;" edge="1" parent="1" source="46lSR11_LrYwZzZyB0Aa-5" target="46lSR11_LrYwZzZyB0Aa-6">
          <mxGeometry relative="1" as="geometry" />
        </mxCell>
        <mxCell id="46lSR11_LrYwZzZyB0Aa-5" value="INNSLAG&lt;br&gt;TYPE" style="rhombus;whiteSpace=wrap;html=1;fillColor=#F26D15;fontSize=10;spacing=4;" vertex="1" parent="1">
          <mxGeometry x="765" y="1443.33" width="70" height="60" as="geometry" />
        </mxCell>
        <mxCell id="46lSR11_LrYwZzZyB0Aa-26" style="edgeStyle=orthogonalEdgeStyle;rounded=0;orthogonalLoop=1;jettySize=auto;html=1;entryX=0.5;entryY=0;entryDx=0;entryDy=0;" edge="1" parent="1" source="46lSR11_LrYwZzZyB0Aa-6" target="46lSR11_LrYwZzZyB0Aa-25">
          <mxGeometry relative="1" as="geometry">
            <Array as="points">
              <mxPoint x="591" y="1630" />
              <mxPoint x="725" y="1630" />
            </Array>
          </mxGeometry>
        </mxCell>
        <mxCell id="46lSR11_LrYwZzZyB0Aa-6" value="INNSLAGSSIDE&lt;br&gt;KATEGORI: VISE FREM" style="rounded=1;whiteSpace=wrap;html=1;fillColor=#000000;fontColor=#FFFFFF;" vertex="1" parent="1">
          <mxGeometry x="510" y="1553.33" width="162.5" height="60" as="geometry" />
        </mxCell>
        <mxCell id="46lSR11_LrYwZzZyB0Aa-63" style="edgeStyle=orthogonalEdgeStyle;rounded=0;orthogonalLoop=1;jettySize=auto;html=1;entryX=0.5;entryY=0;entryDx=0;entryDy=0;" edge="1" parent="1" source="46lSR11_LrYwZzZyB0Aa-7" target="46lSR11_LrYwZzZyB0Aa-25">
          <mxGeometry relative="1" as="geometry">
            <Array as="points">
              <mxPoint x="869" y="1630" />
              <mxPoint x="725" y="1630" />
            </Array>
          </mxGeometry>
        </mxCell>
        <mxCell id="46lSR11_LrYwZzZyB0Aa-7" value="INNSLAGSSIDE&lt;br&gt;KATEGORI: JOBBE MED" style="rounded=1;whiteSpace=wrap;html=1;fillColor=#000000;fontColor=#FFFFFF;" vertex="1" parent="1">
          <mxGeometry x="788" y="1553.33" width="162.5" height="60" as="geometry" />
        </mxCell>
        <mxCell id="46lSR11_LrYwZzZyB0Aa-22" value="" style="group" vertex="1" connectable="0" parent="1">
          <mxGeometry x="-270" y="1444.33" width="160" height="190" as="geometry" />
        </mxCell>
        <mxCell id="46lSR11_LrYwZzZyB0Aa-23" value="" style="shape=curlyBracket;whiteSpace=wrap;html=1;rounded=1;fontSize=10;strokeWidth=3;" vertex="1" parent="46lSR11_LrYwZzZyB0Aa-22">
          <mxGeometry x="140" width="20" height="189" as="geometry" />
        </mxCell>
        <mxCell id="46lSR11_LrYwZzZyB0Aa-24" value="&lt;b&gt;TYPER INNSLAG&lt;/b&gt;&lt;br&gt;Mens brukeren tar stilling til musikk, dans, teater osv, er det i realiteten to overordnede kategorier; noe du viser frem, eller noe du jobber med.&lt;br&gt;&lt;br&gt;&lt;b&gt;VISE FREM:&lt;/b&gt;&lt;br&gt;Musikk, Dans, Teater, Utstilling, Film, Cosplay, Dataspill, Matkultur, Litteratur, Annet på scene&lt;br&gt;&lt;br&gt;&lt;b&gt;JOBBE MED:&amp;nbsp;&lt;/b&gt;&lt;br&gt;Arrangør, Konferansier, Media" style="text;html=1;strokeColor=none;fillColor=none;align=left;verticalAlign=middle;whiteSpace=wrap;rounded=0;fontSize=10;" vertex="1" parent="46lSR11_LrYwZzZyB0Aa-22">
          <mxGeometry x="-30" width="160" height="190" as="geometry" />
        </mxCell>
        <mxCell id="46lSR11_LrYwZzZyB0Aa-34" value="JA" style="edgeStyle=orthogonalEdgeStyle;rounded=0;orthogonalLoop=1;jettySize=auto;html=1;entryX=0.5;entryY=0;entryDx=0;entryDy=0;" edge="1" parent="1" source="46lSR11_LrYwZzZyB0Aa-25" target="46lSR11_LrYwZzZyB0Aa-27">
          <mxGeometry relative="1" as="geometry" />
        </mxCell>
        <mxCell id="46lSR11_LrYwZzZyB0Aa-62" value="NEI" style="edgeStyle=orthogonalEdgeStyle;rounded=0;orthogonalLoop=1;jettySize=auto;html=1;entryX=0.75;entryY=0;entryDx=0;entryDy=0;" edge="1" parent="1" source="46lSR11_LrYwZzZyB0Aa-25" target="46lSR11_LrYwZzZyB0Aa-58">
          <mxGeometry x="-0.7001" relative="1" as="geometry">
            <Array as="points">
              <mxPoint x="808" y="1733" />
              <mxPoint x="808" y="1928" />
            </Array>
            <mxPoint as="offset" />
          </mxGeometry>
        </mxCell>
        <mxCell id="46lSR11_LrYwZzZyB0Aa-25" value="MANGLER&lt;br&gt;&amp;nbsp;NOE INFO?" style="rhombus;whiteSpace=wrap;html=1;fillColor=#F26D15;fontSize=10;spacing=4;" vertex="1" parent="1">
          <mxGeometry x="685" y="1650" width="80" height="80" as="geometry" />
        </mxCell>
        <mxCell id="46lSR11_LrYwZzZyB0Aa-31" style="edgeStyle=orthogonalEdgeStyle;rounded=0;orthogonalLoop=1;jettySize=auto;html=1;entryX=0.5;entryY=0;entryDx=0;entryDy=0;" edge="1" parent="1" source="46lSR11_LrYwZzZyB0Aa-27" target="46lSR11_LrYwZzZyB0Aa-29">
          <mxGeometry relative="1" as="geometry" />
        </mxCell>
        <mxCell id="46lSR11_LrYwZzZyB0Aa-32" style="edgeStyle=orthogonalEdgeStyle;rounded=0;orthogonalLoop=1;jettySize=auto;html=1;entryX=0.5;entryY=0;entryDx=0;entryDy=0;" edge="1" parent="1" source="46lSR11_LrYwZzZyB0Aa-27" target="46lSR11_LrYwZzZyB0Aa-28">
          <mxGeometry relative="1" as="geometry" />
        </mxCell>
        <mxCell id="46lSR11_LrYwZzZyB0Aa-27" value="NESTEN FERDIG&lt;br&gt;(dette mangler...)" style="rounded=1;whiteSpace=wrap;html=1;fillColor=#000000;fontColor=#FFFFFF;" vertex="1" parent="1">
          <mxGeometry x="510" y="1740" width="162.5" height="60" as="geometry" />
        </mxCell>
        <mxCell id="46lSR11_LrYwZzZyB0Aa-33" style="edgeStyle=orthogonalEdgeStyle;rounded=0;orthogonalLoop=1;jettySize=auto;html=1;entryX=0;entryY=0.5;entryDx=0;entryDy=0;" edge="1" parent="1" source="46lSR11_LrYwZzZyB0Aa-28" target="46lSR11_LrYwZzZyB0Aa-6">
          <mxGeometry relative="1" as="geometry">
            <Array as="points">
              <mxPoint x="400" y="1850" />
              <mxPoint x="400" y="1583" />
            </Array>
          </mxGeometry>
        </mxCell>
        <mxCell id="46lSR11_LrYwZzZyB0Aa-28" value="TILBAKE" style="shape=hexagon;perimeter=hexagonPerimeter2;whiteSpace=wrap;html=1;fixedSize=1;fillColor=#f5f5f5;strokeColor=#666666;fontColor=#333333;" vertex="1" parent="1">
          <mxGeometry x="426.25" y="1840" width="140" height="40" as="geometry" />
        </mxCell>
        <mxCell id="46lSR11_LrYwZzZyB0Aa-129" style="edgeStyle=orthogonalEdgeStyle;rounded=0;orthogonalLoop=1;jettySize=auto;html=1;fontColor=#000000;" edge="1" parent="1" source="46lSR11_LrYwZzZyB0Aa-29">
          <mxGeometry relative="1" as="geometry">
            <mxPoint x="1020" y="1860" as="targetPoint" />
            <Array as="points">
              <mxPoint x="1020" y="1860" />
            </Array>
          </mxGeometry>
        </mxCell>
        <mxCell id="46lSR11_LrYwZzZyB0Aa-29" value="DIN SIDE" style="shape=hexagon;perimeter=hexagonPerimeter2;whiteSpace=wrap;html=1;fixedSize=1;fillColor=#f5f5f5;strokeColor=#666666;fontColor=#333333;" vertex="1" parent="1">
          <mxGeometry x="616.25" y="1840" width="140" height="40" as="geometry" />
        </mxCell>
        <mxCell id="46lSR11_LrYwZzZyB0Aa-36" value="INNGANG" style="shape=umlActor;verticalLabelPosition=bottom;verticalAlign=top;html=1;outlineConnect=0;" vertex="1" parent="1">
          <mxGeometry x="285" y="-340" width="30" height="60" as="geometry" />
        </mxCell>
        <mxCell id="46lSR11_LrYwZzZyB0Aa-48" style="edgeStyle=orthogonalEdgeStyle;rounded=0;orthogonalLoop=1;jettySize=auto;html=1;entryX=0.5;entryY=0;entryDx=0;entryDy=0;" edge="1" parent="1" source="46lSR11_LrYwZzZyB0Aa-47" target="4jG-6nnVgu0Ws9EfD6lV-63">
          <mxGeometry relative="1" as="geometry" />
        </mxCell>
        <mxCell id="46lSR11_LrYwZzZyB0Aa-49" value="VANLIG ARRANGEMENT" style="edgeLabel;html=1;align=center;verticalAlign=middle;resizable=0;points=[];" vertex="1" connectable="0" parent="46lSR11_LrYwZzZyB0Aa-48">
          <mxGeometry x="-0.0284" y="-2" relative="1" as="geometry">
            <mxPoint as="offset" />
          </mxGeometry>
        </mxCell>
        <mxCell id="46lSR11_LrYwZzZyB0Aa-59" value="WORKSHOP-&lt;br&gt;ARRANGEMENT" style="edgeStyle=orthogonalEdgeStyle;rounded=0;orthogonalLoop=1;jettySize=auto;html=1;entryX=0.129;entryY=-0.071;entryDx=0;entryDy=0;entryPerimeter=0;" edge="1" parent="1" source="46lSR11_LrYwZzZyB0Aa-47" target="46lSR11_LrYwZzZyB0Aa-58">
          <mxGeometry x="-0.8634" relative="1" as="geometry">
            <mxPoint x="-1" as="offset" />
          </mxGeometry>
        </mxCell>
        <mxCell id="46lSR11_LrYwZzZyB0Aa-47" value="ARRANGEMENTS-TYPE" style="rhombus;whiteSpace=wrap;html=1;fillColor=#F26D15;fontSize=10;spacing=4;" vertex="1" parent="1">
          <mxGeometry x="20" y="1240" width="180" height="80" as="geometry" />
        </mxCell>
        <mxCell id="46lSR11_LrYwZzZyB0Aa-55" value="NEI" style="edgeStyle=orthogonalEdgeStyle;rounded=0;orthogonalLoop=1;jettySize=auto;html=1;entryX=1;entryY=0.5;entryDx=0;entryDy=0;" edge="1" parent="1" source="46lSR11_LrYwZzZyB0Aa-52" target="46lSR11_LrYwZzZyB0Aa-54">
          <mxGeometry relative="1" as="geometry" />
        </mxCell>
        <mxCell id="46lSR11_LrYwZzZyB0Aa-57" value="JA" style="edgeStyle=orthogonalEdgeStyle;rounded=0;orthogonalLoop=1;jettySize=auto;html=1;entryX=0.5;entryY=0;entryDx=0;entryDy=0;" edge="1" parent="1" source="46lSR11_LrYwZzZyB0Aa-52" target="46lSR11_LrYwZzZyB0Aa-47">
          <mxGeometry relative="1" as="geometry" />
        </mxCell>
        <mxCell id="46lSR11_LrYwZzZyB0Aa-52" value="PÅMELDINGEN&lt;br&gt;ÅPEN?" style="rhombus;whiteSpace=wrap;html=1;fillColor=#F26D15;fontSize=10;spacing=4;" vertex="1" parent="1">
          <mxGeometry x="40.5" y="1120" width="140" height="80" as="geometry" />
        </mxCell>
        <mxCell id="46lSR11_LrYwZzZyB0Aa-53" style="edgeStyle=orthogonalEdgeStyle;rounded=0;orthogonalLoop=1;jettySize=auto;html=1;fontSize=10;fontColor=#F26D15;entryX=0.5;entryY=0;entryDx=0;entryDy=0;" edge="1" parent="1" source="4jG-6nnVgu0Ws9EfD6lV-60" target="46lSR11_LrYwZzZyB0Aa-52">
          <mxGeometry relative="1" as="geometry">
            <mxPoint x="-39.99999999999977" y="1053" as="sourcePoint" />
            <mxPoint x="110.5" y="1270" as="targetPoint" />
            <Array as="points">
              <mxPoint x="-40" y="1070" />
              <mxPoint x="111" y="1070" />
            </Array>
          </mxGeometry>
        </mxCell>
        <mxCell id="46lSR11_LrYwZzZyB0Aa-125" style="edgeStyle=orthogonalEdgeStyle;rounded=0;orthogonalLoop=1;jettySize=auto;html=1;entryX=0;entryY=0.5;entryDx=0;entryDy=0;fontColor=#000000;exitX=0;exitY=0.5;exitDx=0;exitDy=0;" edge="1" parent="1" source="46lSR11_LrYwZzZyB0Aa-126" target="4jG-6nnVgu0Ws9EfD6lV-2">
          <mxGeometry relative="1" as="geometry">
            <Array as="points">
              <mxPoint x="-290" y="1240" />
              <mxPoint x="-290" y="360" />
            </Array>
          </mxGeometry>
        </mxCell>
        <mxCell id="46lSR11_LrYwZzZyB0Aa-127" style="edgeStyle=orthogonalEdgeStyle;rounded=0;orthogonalLoop=1;jettySize=auto;html=1;exitX=0.5;exitY=1;exitDx=0;exitDy=0;entryX=0.5;entryY=0;entryDx=0;entryDy=0;fontColor=#000000;" edge="1" parent="1" source="46lSR11_LrYwZzZyB0Aa-54" target="46lSR11_LrYwZzZyB0Aa-126">
          <mxGeometry relative="1" as="geometry" />
        </mxCell>
        <mxCell id="46lSR11_LrYwZzZyB0Aa-54" value="PÅMELDING STENGT" style="rounded=1;whiteSpace=wrap;html=1;fontColor=#FFFFFF;fillColor=#000000;strokeColor=#F21D16;strokeWidth=4;" vertex="1" parent="1">
          <mxGeometry x="-226.5" y="1135" width="120" height="50" as="geometry" />
        </mxCell>
        <mxCell id="46lSR11_LrYwZzZyB0Aa-68" style="edgeStyle=orthogonalEdgeStyle;rounded=0;orthogonalLoop=1;jettySize=auto;html=1;" edge="1" parent="1" source="46lSR11_LrYwZzZyB0Aa-58" target="46lSR11_LrYwZzZyB0Aa-64">
          <mxGeometry relative="1" as="geometry" />
        </mxCell>
        <mxCell id="46lSR11_LrYwZzZyB0Aa-69" style="edgeStyle=orthogonalEdgeStyle;rounded=0;orthogonalLoop=1;jettySize=auto;html=1;entryX=0.625;entryY=0;entryDx=0;entryDy=0;" edge="1" parent="1" source="46lSR11_LrYwZzZyB0Aa-58" target="46lSR11_LrYwZzZyB0Aa-66">
          <mxGeometry relative="1" as="geometry" />
        </mxCell>
        <mxCell id="46lSR11_LrYwZzZyB0Aa-70" style="edgeStyle=orthogonalEdgeStyle;rounded=0;orthogonalLoop=1;jettySize=auto;html=1;entryX=0.5;entryY=0;entryDx=0;entryDy=0;" edge="1" parent="1" source="46lSR11_LrYwZzZyB0Aa-58" target="46lSR11_LrYwZzZyB0Aa-65">
          <mxGeometry relative="1" as="geometry" />
        </mxCell>
        <mxCell id="46lSR11_LrYwZzZyB0Aa-58" value="DU ER PÅMELDT!" style="rounded=1;whiteSpace=wrap;html=1;fillColor=#000000;fontColor=#FFFFFF;" vertex="1" parent="1">
          <mxGeometry x="260" y="1900" width="730" height="60" as="geometry" />
        </mxCell>
        <mxCell id="46lSR11_LrYwZzZyB0Aa-128" style="edgeStyle=orthogonalEdgeStyle;rounded=0;orthogonalLoop=1;jettySize=auto;html=1;fontColor=#000000;" edge="1" parent="1" source="46lSR11_LrYwZzZyB0Aa-64">
          <mxGeometry relative="1" as="geometry">
            <mxPoint x="370" y="2100" as="targetPoint" />
          </mxGeometry>
        </mxCell>
        <mxCell id="46lSR11_LrYwZzZyB0Aa-64" value="SE PÅMELDTE" style="shape=hexagon;perimeter=hexagonPerimeter2;whiteSpace=wrap;html=1;fixedSize=1;fillColor=#f5f5f5;strokeColor=#666666;fontColor=#333333;" vertex="1" parent="1">
          <mxGeometry x="300" y="2010" width="140" height="40" as="geometry" />
        </mxCell>
        <mxCell id="46lSR11_LrYwZzZyB0Aa-71" style="edgeStyle=orthogonalEdgeStyle;rounded=0;orthogonalLoop=1;jettySize=auto;html=1;entryX=1;entryY=0.5;entryDx=0;entryDy=0;" edge="1" parent="1" source="46lSR11_LrYwZzZyB0Aa-65" target="4jG-6nnVgu0Ws9EfD6lV-2">
          <mxGeometry relative="1" as="geometry">
            <mxPoint x="1020" y="1850" as="targetPoint" />
            <Array as="points">
              <mxPoint x="1020" y="2030" />
              <mxPoint x="1020" y="360" />
            </Array>
          </mxGeometry>
        </mxCell>
        <mxCell id="46lSR11_LrYwZzZyB0Aa-65" value="DIN SIDE" style="shape=hexagon;perimeter=hexagonPerimeter2;whiteSpace=wrap;html=1;fixedSize=1;fillColor=#f5f5f5;strokeColor=#666666;fontColor=#333333;" vertex="1" parent="1">
          <mxGeometry x="780" y="2010" width="140" height="40" as="geometry" />
        </mxCell>
        <mxCell id="46lSR11_LrYwZzZyB0Aa-73" style="edgeStyle=orthogonalEdgeStyle;rounded=0;orthogonalLoop=1;jettySize=auto;html=1;entryX=0;entryY=0.5;entryDx=0;entryDy=0;" edge="1" parent="1" source="46lSR11_LrYwZzZyB0Aa-66" target="4jG-6nnVgu0Ws9EfD6lV-85">
          <mxGeometry relative="1" as="geometry">
            <mxPoint x="370" y="2100" as="targetPoint" />
            <Array as="points">
              <mxPoint x="607" y="2100" />
              <mxPoint x="-450" y="2100" />
              <mxPoint x="-450" y="-230" />
            </Array>
          </mxGeometry>
        </mxCell>
        <mxCell id="46lSR11_LrYwZzZyB0Aa-66" value="SPØRSMÅL?" style="shape=hexagon;perimeter=hexagonPerimeter2;whiteSpace=wrap;html=1;fixedSize=1;fillColor=#f5f5f5;strokeColor=#666666;fontColor=#333333;" vertex="1" parent="1">
          <mxGeometry x="537.5" y="2010" width="140" height="40" as="geometry" />
        </mxCell>
        <mxCell id="46lSR11_LrYwZzZyB0Aa-84" value="" style="group" vertex="1" connectable="0" parent="1">
          <mxGeometry x="180.5" y="40" width="435" height="130" as="geometry" />
        </mxCell>
        <mxCell id="46lSR11_LrYwZzZyB0Aa-76" value="MANGLER&lt;br&gt;VI NOEN&lt;br&gt;KRAV?" style="rhombus;whiteSpace=wrap;html=1;fillColor=#F26D15;fontSize=10;spacing=4;" vertex="1" parent="46lSR11_LrYwZzZyB0Aa-84">
          <mxGeometry x="180" y="48" width="80" height="80" as="geometry" />
        </mxCell>
        <mxCell id="46lSR11_LrYwZzZyB0Aa-77" style="edgeStyle=orthogonalEdgeStyle;rounded=0;orthogonalLoop=1;jettySize=auto;html=1;fontSize=10;entryX=0.5;entryY=0;entryDx=0;entryDy=0;" edge="1" parent="46lSR11_LrYwZzZyB0Aa-84" source="46lSR11_LrYwZzZyB0Aa-79" target="46lSR11_LrYwZzZyB0Aa-76">
          <mxGeometry relative="1" as="geometry">
            <mxPoint x="220" y="36" as="targetPoint" />
            <Array as="points">
              <mxPoint x="370" y="6" />
              <mxPoint x="220" y="6" />
            </Array>
          </mxGeometry>
        </mxCell>
        <mxCell id="46lSR11_LrYwZzZyB0Aa-78" value="LAGRE" style="edgeLabel;html=1;align=center;verticalAlign=middle;resizable=0;points=[];fontSize=10;" vertex="1" connectable="0" parent="46lSR11_LrYwZzZyB0Aa-77">
          <mxGeometry x="0.0261" relative="1" as="geometry">
            <mxPoint as="offset" />
          </mxGeometry>
        </mxCell>
        <mxCell id="46lSR11_LrYwZzZyB0Aa-79" value="KRAV-SKJEMA" style="rounded=1;whiteSpace=wrap;html=1;fillColor=#000000;fontColor=#FFFFFF;" vertex="1" parent="46lSR11_LrYwZzZyB0Aa-84">
          <mxGeometry x="310" y="58" width="120" height="60" as="geometry" />
        </mxCell>
        <mxCell id="46lSR11_LrYwZzZyB0Aa-74" style="edgeStyle=orthogonalEdgeStyle;rounded=0;orthogonalLoop=1;jettySize=auto;html=1;entryX=0;entryY=0.5;entryDx=0;entryDy=0;fontSize=10;" edge="1" parent="46lSR11_LrYwZzZyB0Aa-84" source="46lSR11_LrYwZzZyB0Aa-76" target="46lSR11_LrYwZzZyB0Aa-79">
          <mxGeometry relative="1" as="geometry" />
        </mxCell>
        <mxCell id="46lSR11_LrYwZzZyB0Aa-75" value="JA" style="edgeLabel;html=1;align=center;verticalAlign=middle;resizable=0;points=[];fontSize=10;" vertex="1" connectable="0" parent="46lSR11_LrYwZzZyB0Aa-74">
          <mxGeometry x="-0.36" relative="1" as="geometry">
            <mxPoint as="offset" />
          </mxGeometry>
        </mxCell>
        <mxCell id="46lSR11_LrYwZzZyB0Aa-80" value="" style="group" vertex="1" connectable="0" parent="46lSR11_LrYwZzZyB0Aa-84">
          <mxGeometry width="170" height="130" as="geometry" />
        </mxCell>
        <mxCell id="46lSR11_LrYwZzZyB0Aa-81" value="" style="shape=curlyBracket;whiteSpace=wrap;html=1;rounded=1;fontSize=10;strokeWidth=3;" vertex="1" parent="46lSR11_LrYwZzZyB0Aa-80">
          <mxGeometry x="150" width="20" height="130" as="geometry" />
        </mxCell>
        <mxCell id="46lSR11_LrYwZzZyB0Aa-82" value="&lt;b&gt;Generisk hook-point.&lt;br&gt;&lt;/b&gt;Kan innebære et ukjent antall krav som vi forsøker å holde til et minimum.&lt;br&gt;Gjelder kun info om kontaktperson / bruker.&lt;br&gt;&lt;br&gt;&lt;b&gt;Kjent per nå:&amp;nbsp;&lt;/b&gt;alder, personvern" style="text;html=1;strokeColor=none;fillColor=none;align=left;verticalAlign=middle;whiteSpace=wrap;rounded=0;fontSize=10;" vertex="1" parent="46lSR11_LrYwZzZyB0Aa-80">
          <mxGeometry y="16" width="150" height="80" as="geometry" />
        </mxCell>
        <mxCell id="46lSR11_LrYwZzZyB0Aa-110" value="FORSIDE / LOGG INN" style="edgeStyle=orthogonalEdgeStyle;rounded=0;orthogonalLoop=1;jettySize=auto;html=1;entryX=0.5;entryY=0;entryDx=0;entryDy=0;" edge="1" parent="1" source="46lSR11_LrYwZzZyB0Aa-109" target="4jG-6nnVgu0Ws9EfD6lV-2">
          <mxGeometry relative="1" as="geometry" />
        </mxCell>
        <mxCell id="46lSR11_LrYwZzZyB0Aa-113" value="ARRANGEMENTSSIDE" style="edgeStyle=orthogonalEdgeStyle;rounded=0;orthogonalLoop=1;jettySize=auto;html=1;exitX=0;exitY=0.5;exitDx=0;exitDy=0;entryX=0;entryY=0.5;entryDx=0;entryDy=0;" edge="1" parent="1" source="46lSR11_LrYwZzZyB0Aa-109" target="4jG-6nnVgu0Ws9EfD6lV-63">
          <mxGeometry x="-0.9142" relative="1" as="geometry">
            <mxPoint x="-159.99999999999977" y="240.16666666666697" as="targetPoint" />
            <Array as="points">
              <mxPoint x="-360" y="240" />
              <mxPoint x="-360" y="1392" />
            </Array>
            <mxPoint as="offset" />
          </mxGeometry>
        </mxCell>
        <mxCell id="46lSR11_LrYwZzZyB0Aa-109" value="BRUKEREN&lt;br&gt;KOM FRA" style="rhombus;whiteSpace=wrap;html=1;fillColor=#F26D15;fontSize=10;spacing=4;" vertex="1" parent="1">
          <mxGeometry x="360" y="200" width="80" height="80" as="geometry" />
        </mxCell>
        <mxCell id="46lSR11_LrYwZzZyB0Aa-112" style="edgeStyle=orthogonalEdgeStyle;rounded=0;orthogonalLoop=1;jettySize=auto;html=1;exitX=0.5;exitY=1;exitDx=0;exitDy=0;entryX=0.5;entryY=0;entryDx=0;entryDy=0;" edge="1" parent="1" source="46lSR11_LrYwZzZyB0Aa-76" target="46lSR11_LrYwZzZyB0Aa-109">
          <mxGeometry relative="1" as="geometry" />
        </mxCell>
        <mxCell id="46lSR11_LrYwZzZyB0Aa-119" style="edgeStyle=orthogonalEdgeStyle;rounded=0;orthogonalLoop=1;jettySize=auto;html=1;entryX=0.5;entryY=0;entryDx=0;entryDy=0;fontColor=#000000;" edge="1" parent="1" source="46lSR11_LrYwZzZyB0Aa-114" target="4jG-6nnVgu0Ws9EfD6lV-86">
          <mxGeometry relative="1" as="geometry" />
        </mxCell>
        <mxCell id="46lSR11_LrYwZzZyB0Aa-114" value="UKM.NO&lt;br&gt;FORSIDE" style="rounded=1;whiteSpace=wrap;html=1;fillColor=#d5e8d4;strokeColor=#82b366;" vertex="1" parent="1">
          <mxGeometry x="440" y="-260" width="160" height="60" as="geometry" />
        </mxCell>
        <mxCell id="46lSR11_LrYwZzZyB0Aa-120" value="INNGANG" style="shape=umlActor;verticalLabelPosition=bottom;verticalAlign=top;html=1;outlineConnect=0;" vertex="1" parent="1">
          <mxGeometry x="507.5" y="-340" width="30" height="60" as="geometry" />
        </mxCell>
        <mxCell id="46lSR11_LrYwZzZyB0Aa-126" value="DIN SIDE" style="shape=hexagon;perimeter=hexagonPerimeter2;whiteSpace=wrap;html=1;fixedSize=1;fillColor=#f5f5f5;strokeColor=#666666;fontColor=#333333;" vertex="1" parent="1">
          <mxGeometry x="-236.5" y="1220" width="140" height="40" as="geometry" />
        </mxCell>
      </root>
    </mxGraphModel>
  </diagram>
</mxfile>
